<?xml version="1.0" standalone="no"?>
<svg width="1450.5" height="678" xmlns:xlink="http://www.w3.org/1999/xlink" xmlns="http://www.w3.org/2000/svg" id="netDrawArea" style="height: 733px;">
                    
                    <polyline points="89.99970140117497,94.89071201420123  223.00014929941253,94.16393361038573" fill="none" stroke-width="4" stroke="white"/><polyline points="89.99970140117497,94.89071201420123  223.00014929941253,94.16393361038573" fill="none" stroke-width="2" stroke="black"/><polygon points="233,94.10928961748634 223.02747129586223,99.16385896067946 222.97282730296283,89.16400826009199" stroke="black" fill="black"/><rect x="160.4998507005875" y="93.50000081584378" opacity="0.6" stroke-width="1" fill="white" width="2" height="0"/><text font-family="verdana" font-weight="bold" font-size="12" x="161.4998507005875" y="90.50000081584378"></text><polyline points="86.89638151108457,105.70104162368689  221.55180924445773,190.9828125214899" fill="none" stroke-width="4" stroke="white"/><polyline points="86.89638151108457,105.70104162368689  221.55180924445773,190.9828125214899" fill="none" stroke-width="2" stroke="black"/><polygon points="230,196.33333333333334 218.876548838536,195.20690789926104 224.22706965037946,186.75871714371877" stroke="black" fill="black"/><rect x="157.44819075554227" y="150.01718747851012" opacity="0.6" stroke-width="1" fill="white" width="2" height="0"/><text font-family="verdana" font-weight="bold" font-size="12" x="158.44819075554227" y="147.01718747851012"></text><circle id="0" cx="70" cy="95" r="20" fill="white" stroke="black" stroke-width="2" class="place"/><circle cx="61" cy="86" r="4" fill="white"/><circle cx="70" cy="86" r="4" fill="white"/><circle cx="79" cy="86" r="4" fill="white"/><circle cx="61" cy="95" r="4" fill="white"/><circle cx="70" cy="95" r="4" fill="white"/><circle cx="79" cy="95" r="4" fill="white"/><circle cx="61" cy="104" r="4" fill="white"/><circle cx="70" cy="104" r="4" fill="white"/><circle cx="79" cy="104" r="4" fill="white"/><text x="274" y="176" font-family="verdana" font-weight="bold" font-size="12" fill="black"></text><polyline points="249.5555555555555,229  247.66650211855438,314.0074046650517" fill="none" stroke-width="4" stroke="white"/><polyline points="249.5555555555555,229  247.66650211855438,314.0074046650517" fill="none" stroke-width="2" stroke="black"/><polygon points="247.44433474570292,324.0049364433678 242.66773622939633,313.89632097862597 252.66526800771243,314.1184883514774" stroke="black" fill="black"/><rect x="247.4999451506292" y="275.5024682216839" opacity="0.6" stroke-width="1" fill="white" width="2" height="0"/><text font-family="verdana" font-weight="bold" font-size="12" x="248.4999451506292" y="272.5024682216839"></text><rect id="9" x="230" y="189" width="40" height="40" fill="#ffb3b3" class="transition" stroke="black" stroke-width="2"/><polyline points="246.77529508255432,363.99873765266386  246.3370715598464,403.00063117366807" fill="none" stroke-width="4" stroke="white"/><polyline points="246.77529508255432,363.99873765266386  246.3370715598464,403.00063117366807" fill="none" stroke-width="2" stroke="black"/><polygon points="246.22471910112358,413 241.33738714668044,402.94445494430664 251.33675597301237,403.0568074030295" stroke="black" fill="black"/><rect x="245.50000709183894" y="387.49936882633193" opacity="0.6" stroke-width="1" fill="white" width="2" height="0"/><text font-family="verdana" font-weight="bold" font-size="12" x="246.50000709183894" y="384.49936882633193"></text><circle id="12" cx="247" cy="344" r="20" fill="white" stroke="black" stroke-width="2" class="place"/><circle cx="238" cy="335" r="4" fill="white"/><circle cx="247" cy="335" r="4" fill="white"/><circle cx="256" cy="335" r="4" fill="white"/><circle cx="238" cy="344" r="4" fill="white"/><circle cx="247" cy="344" r="4" fill="white"/><circle cx="256" cy="344" r="4" fill="white"/><circle cx="238" cy="353" r="4" fill="white"/><circle cx="247" cy="353" r="4" fill="white"/><circle cx="256" cy="353" r="4" fill="white"/><text x="245" y="382" font-family="verdana" font-weight="bold" font-size="12" fill="black"></text><circle id="18" cx="245" cy="535" r="20" fill="white" stroke="black" stroke-width="2" class="place"/><circle cx="236" cy="526" r="4" fill="white"/><circle cx="245" cy="526" r="4" fill="white"/><circle cx="254" cy="526" r="4" fill="white"/><circle cx="236" cy="535" r="4" fill="white"/><circle cx="245" cy="535" r="4" fill="black"/><circle cx="254" cy="535" r="4" fill="white"/><circle cx="236" cy="544" r="4" fill="white"/><circle cx="245" cy="544" r="4" fill="white"/><circle cx="254" cy="544" r="4" fill="white"/><text x="222" y="551" font-family="verdana" font-weight="bold" font-size="12" fill="black"></text><polyline points="245.8039215686275,453  245.29410351324267,505.0014416492475" fill="none" stroke-width="4" stroke="white"/><polyline points="245.8039215686275,453  245.29410351324267,505.0014416492475" fill="none" stroke-width="2" stroke="black"/><polygon points="245.19606900882846,515.0009610994983 240.29434378811726,504.9524243970404 250.2938632383681,505.05045890145465" stroke="black" fill="black"/><rect x="244.49999528872797" y="483.00048054974917" opacity="0.6" stroke-width="1" fill="white" width="2" height="0"/><text font-family="verdana" font-weight="bold" font-size="12" x="245.49999528872797" y="480.00048054974917"></text><rect id="13" x="226" y="413" width="40" height="40" fill="#ffb3b3" class="transition" stroke="black" stroke-width="2"/><polyline points="273,94.60606060606061  322.01376462563854,96.09132620077693" fill="none" stroke-width="4" stroke="white"/><polyline points="273,94.60606060606061  322.01376462563854,96.09132620077693" fill="none" stroke-width="2" stroke="black"/><polygon points="332.00917641709236,96.39421746718462 321.8623189924347,101.08903209650384 322.16521025884236,91.09362030505002" stroke="black" fill="black"/><rect x="301.5045882085462" y="94.50013903662261" opacity="0.6" stroke-width="1" fill="white" width="2" height="0"/><text font-family="verdana" font-weight="bold" font-size="12" x="302.5045882085462" y="91.50013903662261"></text><rect id="8" x="233" y="74" width="40" height="40" fill="#ffb3b3" class="transition" stroke="black" stroke-width="2"/><polyline points="369.1071921489782,107.3606938367051  465.44640392551094,165.7069770253094" fill="none" stroke-width="4" stroke="white"/><polyline points="369.1071921489782,107.3606938367051  465.44640392551094,165.7069770253094" fill="none" stroke-width="2" stroke="black"/><polygon points="474,170.88732394366198 462.85623046633464,169.983775062554 468.03657738468723,161.43017898806488" stroke="black" fill="black"/><rect x="420.55359607448906" y="138.12400889018355" opacity="0.6" stroke-width="1" fill="white" width="2" height="0"/><text font-family="verdana" font-weight="bold" font-size="12" x="421.55359607448906" y="135.12400889018355"></text><polyline points="371.9505903687086,95.59502884727404  464.0247048156457,89.11093628058832" fill="none" stroke-width="4" stroke="white"/><polyline points="371.9505903687086,95.59502884727404  464.0247048156457,89.11093628058832" fill="none" stroke-width="2" stroke="black"/><polygon points="474,88.40845070422534 464.37594760382717,94.09858387276546 463.6734620274642,84.12328868841118" stroke="black" fill="black"/><rect x="421.9752951843543" y="91.00173977574968" opacity="0.6" stroke-width="1" fill="white" width="2" height="0"/><text font-family="verdana" font-weight="bold" font-size="12" x="422.9752951843543" y="88.00173977574968"></text><circle id="20" cx="352" cy="97" r="20" fill="white" stroke="black" stroke-width="2" class="place"/><circle cx="343" cy="88" r="4" fill="white"/><circle cx="352" cy="88" r="4" fill="white"/><circle cx="361" cy="88" r="4" fill="white"/><circle cx="343" cy="97" r="4" fill="white"/><circle cx="352" cy="97" r="4" fill="white"/><circle cx="361" cy="97" r="4" fill="white"/><circle cx="343" cy="106" r="4" fill="white"/><circle cx="352" cy="106" r="4" fill="white"/><circle cx="361" cy="106" r="4" fill="white"/><text x="366" y="85" font-family="verdana" font-weight="bold" font-size="12" fill="black"></text><polyline points="474,196.03643724696354  272.13236556551476,327.618174671871" fill="none" stroke-width="4" stroke="white"/><polyline points="474,196.03643724696354  272.13236556551476,327.618174671871" fill="none" stroke-width="2" stroke="black"/><polygon points="263.7549103770098,333.07878311458063 269.40206134415985,323.42944707761853 274.86266978686956,331.8069022661234" stroke="black" fill="black"/><rect x="367.8774551885049" y="263.5576101807721" opacity="0.6" stroke-width="1" fill="white" width="2" height="0"/><text font-family="verdana" font-weight="bold" font-size="12" x="368.8774551885049" y="260.5576101807721"></text><rect id="23" x="474" y="163" width="40" height="40" fill="#ffb3b3" class="transition" stroke="black" stroke-width="2"/><polyline points="514,87.56338028169014  606.0118953216413,90.15526465694765" fill="none" stroke-width="4" stroke="white"/><polyline points="514,87.56338028169014  606.0118953216413,90.15526465694765" fill="none" stroke-width="2" stroke="black"/><polygon points="616.0079302144276,90.43684310463176 605.8711060977993,95.15328210334076 606.1526845454833,85.15724721055452" stroke="black" fill="black"/><rect x="564.0039651072138" y="88.00011169316096" opacity="0.6" stroke-width="1" fill="white" width="2" height="0"/><text font-family="verdana" font-weight="bold" font-size="12" x="565.0039651072138" y="85.00011169316096"></text><rect id="22" x="474" y="67" width="40" height="40" fill="#ffb3b3" class="transition" stroke="black" stroke-width="2"/><polyline points="635.4668561952204,110.99289267923541  632.7999052357231,211.0035536603823" fill="none" stroke-width="4" stroke="white"/><polyline points="635.4668561952204,110.99289267923541  632.7999052357231,211.0035536603823" fill="none" stroke-width="2" stroke="black"/><polygon points="632.5333333333333,221 627.8016820659143,210.8702677091874 637.798128405532,211.1368396115772" stroke="black" fill="black"/><rect x="633.0000947642768" y="164.9964463396177" opacity="0.6" stroke-width="1" fill="white" width="2" height="0"/><text font-family="verdana" font-weight="bold" font-size="12" x="634.0000947642768" y="161.9964463396177"></text><polyline points="621.5104895104895,261  495.9340924451395,500.43233040460063" fill="none" stroke-width="4" stroke="white"/><polyline points="621.5104895104895,261  495.9340924451395,500.43233040460063" fill="none" stroke-width="2" stroke="black"/><polygon points="491.28939496342633,509.28822026973376 491.50614751257297,498.10998166374407 500.3620373777061,502.7546791454572" stroke="black" fill="black"/><rect x="555.3999422369579" y="384.1441101348669" opacity="0.6" stroke-width="1" fill="white" width="2" height="0"/><text font-family="verdana" font-weight="bold" font-size="12" x="556.3999422369579" y="381.1441101348669"></text><rect id="34" x="612" y="221" width="40" height="40" fill="#ffb3b3" class="transition" stroke="black" stroke-width="2"/><polyline points="462,527  388,527" fill="none" stroke-width="4" stroke="white"/><polyline points="462,527  388,527" fill="none" stroke-width="2" stroke="black"/><polygon points="378,527 388,522 388,532" stroke="black" fill="black"/><rect x="419" y="526" opacity="0.6" stroke-width="1" fill="white" width="2" height="0"/><text font-family="verdana" font-weight="bold" font-size="12" x="420" y="523"></text><circle id="39" cx="482" cy="527" r="20" fill="white" stroke="black" stroke-width="2" class="place"/><circle cx="473" cy="518" r="4" fill="white"/><circle cx="482" cy="518" r="4" fill="white"/><circle cx="491" cy="518" r="4" fill="white"/><circle cx="473" cy="527" r="4" fill="white"/><circle cx="482" cy="527" r="4" fill="white"/><circle cx="491" cy="527" r="4" fill="white"/><circle cx="473" cy="536" r="4" fill="white"/><circle cx="482" cy="536" r="4" fill="white"/><circle cx="491" cy="536" r="4" fill="white"/><text x="428" y="527" font-family="verdana" font-weight="bold" font-size="12" fill="black"></text><polyline points="338,528.4159292035398  274.9250993603887,532.8814088948398" fill="none" stroke-width="4" stroke="white"/><polyline points="338,528.4159292035398  274.9250993603887,532.8814088948398" fill="none" stroke-width="2" stroke="black"/><polygon points="264.9500662402591,533.5876059298931 274.572000842862,527.8938923347749 275.2781978779154,537.8689254549046" stroke="black" fill="black"/><rect x="300.4750331201295" y="530.0017675667165" opacity="0.6" stroke-width="1" fill="white" width="2" height="0"/><text font-family="verdana" font-weight="bold" font-size="12" x="301.4750331201295" y="527.0017675667165"></text><rect id="38" x="338" y="507" width="40" height="40" fill="#ffb3b3" class="transition" stroke="black" stroke-width="2"/><polyline points="655.9965715265026,90.62969311987958  768.0017142367487,88.55552381043057" fill="none" stroke-width="4" stroke="white"/><polyline points="655.9965715265026,90.62969311987958  768.0017142367487,88.55552381043057" fill="none" stroke-width="2" stroke="black"/><polygon points="778,88.37037037037037 768.0942909567789,93.55466669205623 767.9091375167186,83.55638092880491" stroke="black" fill="black"/><rect x="715.9982857632513" y="88.50003174512497" opacity="0.6" stroke-width="1" fill="white" width="2" height="0"/><text font-family="verdana" font-weight="bold" font-size="12" x="716.9982857632513" y="85.50003174512497"></text><circle id="31" cx="636" cy="91" r="20" fill="white" stroke="black" stroke-width="2" class="place"/><circle cx="627" cy="82" r="4" fill="white"/><circle cx="636" cy="82" r="4" fill="white"/><circle cx="645" cy="82" r="4" fill="white"/><circle cx="627" cy="91" r="4" fill="white"/><circle cx="636" cy="91" r="4" fill="white"/><circle cx="645" cy="91" r="4" fill="white"/><circle cx="627" cy="100" r="4" fill="white"/><circle cx="636" cy="100" r="4" fill="white"/><circle cx="645" cy="100" r="4" fill="white"/><text x="633" y="84" font-family="verdana" font-weight="bold" font-size="12" fill="black"></text><polyline points="799.6,108  803.6076433315133,158.09554164391625" fill="none" stroke-width="4" stroke="white"/><polyline points="799.6,108  803.6076433315133,158.09554164391625" fill="none" stroke-width="2" stroke="black"/><polygon points="804.4050955543422,168.0636944292775 798.6235669388326,158.4942677553307 808.5917197241939,157.6968155325018" stroke="black" fill="black"/><rect x="801.0025477771711" y="137.03184721463873" opacity="0.6" stroke-width="1" fill="white" width="2" height="0"/><text font-family="verdana" font-weight="bold" font-size="12" x="802.0025477771711" y="134.03184721463873"></text><rect id="33" x="778" y="68" width="40" height="40" fill="#ffb3b3" class="transition" stroke="black" stroke-width="2"/><polyline points="806,208  806,256" fill="none" stroke-width="4" stroke="white"/><polyline points="806,208  806,256" fill="none" stroke-width="2" stroke="black"/><polygon points="806,266 801,256 811,256" stroke="black" fill="black"/><rect x="805" y="236" opacity="0.6" stroke-width="1" fill="white" width="2" height="0"/><text font-family="verdana" font-weight="bold" font-size="12" x="806" y="233"></text><polyline points="825.9986940054821,187.77144349693157  951.000652997258,186.34284968000256" fill="none" stroke-width="4" stroke="white"/><polyline points="825.9986940054821,187.77144349693157  951.000652997258,186.34284968000256" fill="none" stroke-width="2" stroke="black"/><polygon points="961,186.22857142855224 951.0577921229832,191.34252318137356 950.9435138715329,181.34317617863155" stroke="black" fill="black"/><rect x="892.499347002741" y="186.0000074627419" opacity="0.6" stroke-width="1" fill="white" width="2" height="0"/><text font-family="verdana" font-weight="bold" font-size="12" x="893.499347002741" y="183.0000074627419"></text><circle id="44" cx="806" cy="188" r="20" fill="white" stroke="black" stroke-width="2" class="place"/><circle cx="797" cy="197" r="4" fill="white"/><circle cx="806" cy="197" r="4" fill="white"/><circle cx="815" cy="197" r="4" fill="white"/><circle cx="797" cy="188" r="4" fill="white"/><circle cx="806" cy="188" r="4" fill="white"/><circle cx="815" cy="188" r="4" fill="white"/><circle cx="797" cy="179" r="4" fill="white"/><circle cx="806" cy="179" r="4" fill="white"/><circle cx="815" cy="179" r="4" fill="white"/><text x="806" y="188" font-family="verdana" font-weight="bold" font-size="12" fill="black"></text><polyline points="804.3333333333334,306  801.4913643956122,340.1036272526536" fill="none" stroke-width="4" stroke="white"/><polyline points="804.3333333333334,306  801.4913643956122,340.1036272526536" fill="none" stroke-width="2" stroke="black"/><polygon points="800.6609095970748,350.0690848351024 796.5086356043878,339.6883998533849 806.4740931868366,340.5188546519223" stroke="black" fill="black"/><rect x="801.4971214652041" y="327.03454241755117" opacity="0.6" stroke-width="1" fill="white" width="2" height="0"/><text font-family="verdana" font-weight="bold" font-size="12" x="802.4971214652041" y="324.03454241755117"></text><rect id="46" x="786" y="266" width="40" height="40" fill="#ffb3b3" class="transition" stroke="black" stroke-width="2"/><polyline points="1001,185.2  1076.0239712383463,182.19904115046614" fill="none" stroke-width="4" stroke="white"/><polyline points="1001,185.2  1076.0239712383463,182.19904115046614" fill="none" stroke-width="2" stroke="black"/><polygon points="1086.0159808255642,181.79936076697743 1076.2238114300908,187.1950459440751 1075.824131046602,177.20303635685718" stroke="black" fill="black"/><rect x="1042.507990412782" y="182.4996803834887" opacity="0.6" stroke-width="1" fill="white" width="2" height="0"/><text font-family="verdana" font-weight="bold" font-size="12" x="1043.507990412782" y="179.4996803834887"></text><rect id="47" x="961" y="166" width="40" height="40" fill="#ffb3b3" class="transition" stroke="black" stroke-width="2"/><polyline points="782.2477880632277,380.9253556109384  712.3761059683861,426.4938439336612" fill="none" stroke-width="4" stroke="white"/><polyline points="782.2477880632277,380.9253556109384  712.3761059683861,426.4938439336612" fill="none" stroke-width="2" stroke="black"/><polygon points="704,431.95652173913044 709.6447670656515,422.30579094946813 715.1074448711207,430.68189691785426" stroke="black" fill="black"/><rect x="742.1238940316139" y="405.44093867503443" opacity="0.6" stroke-width="1" fill="white" width="2" height="0"/><text font-family="verdana" font-weight="bold" font-size="12" x="743.1238940316139" y="402.44093867503443"></text><polyline points="664,453.11881188118815  509.7969953534856,515.7160711931396" fill="none" stroke-width="4" stroke="white"/><polyline points="664,453.11881188118815  509.7969953534856,515.7160711931396" fill="none" stroke-width="2" stroke="black"/><polygon points="500.5313302356571,519.4773807954264 507.91634055234226,511.08323863422527 511.6776501546291,520.3489037520538" stroke="black" fill="black"/><rect x="581.2656651178286" y="485.29809633830723" opacity="0.6" stroke-width="1" fill="white" width="2" height="0"/><text font-family="verdana" font-weight="bold" font-size="12" x="582.2656651178286" y="482.29809633830723"></text><rect id="54" x="664" y="425" width="40" height="40" fill="#ffb3b3" class="transition" stroke="black" stroke-width="2"/><polyline points="779.0516393331438,368.56371774883036  703.9741803454948,363.15814090408327" fill="none" stroke-width="4" stroke="white"/><polyline points="779.0516393331438,368.56371774883036  703.9741803454948,363.15814090408327" fill="none" stroke-width="2" stroke="black"/><polygon points="694,362.43999994609203 704.3332508244904,358.17105073133587 703.6151098664992,368.14523107683067" stroke="black" fill="black"/><rect x="735.5258196665719" y="364.5018588474612" opacity="0.6" stroke-width="1" fill="white" width="2" height="0"/><text font-family="verdana" font-weight="bold" font-size="12" x="736.5258196665719" y="361.5018588474612"></text><circle id="50" cx="799" cy="370" r="20" fill="white" stroke="black" stroke-width="2" class="place"/><circle cx="790" cy="379" r="4" fill="white"/><circle cx="799" cy="379" r="4" fill="white"/><circle cx="808" cy="379" r="4" fill="white"/><circle cx="790" cy="370" r="4" fill="white"/><circle cx="799" cy="370" r="4" fill="white"/><circle cx="808" cy="370" r="4" fill="white"/><circle cx="790" cy="361" r="4" fill="white"/><circle cx="799" cy="361" r="4" fill="white"/><circle cx="808" cy="361" r="4" fill="white"/><text x="799" y="370" font-family="verdana" font-weight="bold" font-size="12" fill="black"></text><polyline points="654,360.20374707259947  276.97625252475416,345.19343394126656" fill="none" stroke-width="4" stroke="white"/><polyline points="654,360.20374707259947  276.97625252475416,345.19343394126656" fill="none" stroke-width="2" stroke="black"/><polygon points="266.9841683498361,344.795622627511 277.17515818163196,340.1973918538075 276.7773468678765,350.1894760287256" stroke="black" fill="black"/><rect x="459.4920841749181" y="351.49968485005525" opacity="0.6" stroke-width="1" fill="white" width="2" height="0"/><text font-family="verdana" font-weight="bold" font-size="12" x="460.4920841749181" y="348.49968485005525"></text><rect id="55" x="654" y="341" width="40" height="40" fill="#ffb3b3" class="transition" stroke="black" stroke-width="2"/><polyline points="1100.8577842059021,200.3276386743681  1084.8922088144802,260.33618066281593" fill="none" stroke-width="4" stroke="white"/><polyline points="1100.8577842059021,200.3276386743681  1084.8922088144802,260.33618066281593" fill="none" stroke-width="2" stroke="black"/><polygon points="1082.3211009174313,270 1080.0602991458882,259.05062671429147 1089.7241184830723,261.6217346113404" stroke="black" fill="black"/><rect x="1090.5894425616666" y="234.16381933718407" opacity="0.6" stroke-width="1" fill="white" width="2" height="0"/><text font-family="verdana" font-weight="bold" font-size="12" x="1091.5894425616666" y="231.16381933718407"></text><polyline points="1076,310 1066,510  511.9872975495573,526.1270820918793" fill="none" stroke-width="4" stroke="white"/><polyline points="1076,310 1066,510  511.9872975495573,526.1270820918793" fill="none" stroke-width="2" stroke="black"/><polygon points="501.9915316997048,526.4180547279195 511.8418112315371,521.1291991669531 512.1327838675774,531.1249650168055" stroke="black" fill="black"/><rect x="782.9957658498524" y="517.2090273639598" opacity="0.6" stroke-width="1" fill="white" width="2" height="0"/><text font-family="verdana" font-weight="bold" font-size="12" x="783.9957658498524" y="514.2090273639598"></text><rect id="60" x="1057" y="270" width="40" height="40" fill="#ffb3b3" class="transition" stroke="black" stroke-width="2"/><polyline points="1123.56833729363,190.55790378363625  1270.2158313359432,270.340219132842" fill="none" stroke-width="4" stroke="white"/><polyline points="1123.56833729363,190.55790378363625  1270.2158313359432,270.340219132842" fill="none" stroke-width="2" stroke="black"/><polygon points="1279,275.1191709929683 1267.8263554058803,274.7323034648703 1272.6053072660065,265.94813480081365" stroke="black" fill="black"/><rect x="1200.284168646815" y="231.83853738830226" opacity="0.6" stroke-width="1" fill="white" width="2" height="0"/><text font-family="verdana" font-weight="bold" font-size="12" x="1201.284168646815" y="228.83853738830226"></text><circle id="51" cx="1106" cy="181" r="20" fill="white" stroke="black" stroke-width="2" class="place"/><circle cx="1097" cy="190" r="4" fill="white"/><circle cx="1106" cy="190" r="4" fill="white"/><circle cx="1115" cy="190" r="4" fill="white"/><circle cx="1097" cy="181" r="4" fill="white"/><circle cx="1106" cy="181" r="4" fill="white"/><circle cx="1115" cy="181" r="4" fill="white"/><circle cx="1097" cy="172" r="4" fill="white"/><circle cx="1106" cy="172" r="4" fill="white"/><circle cx="1115" cy="172" r="4" fill="white"/><text x="1106" y="181" font-family="verdana" font-weight="bold" font-size="12" fill="black"></text><polyline points="1293.8314606741574,306 1283.5062104464419,345.95422914202953" fill="none" stroke-width="4" stroke="white"/><polyline points="1293.8314606741574,306 1283.5062104464419,345.95422914202953" fill="none" stroke-width="2" stroke="black"/><polygon points="1281.0041402976278,355.636152761353 1278.66524863678,344.7031940676226 1288.3471722561037,347.2052642164365" stroke="black" fill="black"/><rect x="1286.4178004858927" y="333.81807638067653" opacity="0.6" stroke-width="1" fill="white" width="2" height="0"/><text font-family="verdana" font-weight="bold" font-size="12"></text><rect id="61" x="1279" y="266" width="40" height="40" fill="#ffb3b3" class="transition" stroke="black" stroke-width="2"/><polyline points="1259.009960491288,385.55170874751593 1209.495019754356,416.3030929946631" fill="none" stroke-width="4" stroke="white"/><polyline points="1259.009960491288,385.55170874751593 1209.495019754356,416.3030929946631" fill="none" stroke-width="2" stroke="black"/><polygon points="1201,421.57894736842104 1206.8570925674771,412.05558311748507 1212.1329469412349,420.5506028718411" stroke="black" fill="black"/><rect x="1229.004980245644" y="406.5653280579685" opacity="0.6" stroke-width="1" fill="white" width="2" height="0"/><text font-family="verdana" font-weight="bold" font-size="12"></text><polyline points="1161,436.6609442060086 511.73795052382513,523.0434486427529" fill="none" stroke-width="4" stroke="white"/><polyline points="1161,436.6609442060086 511.73795052382513,523.0434486427529" fill="none" stroke-width="2" stroke="black"/><polygon points="501.8253003492167,524.3622990951686 511.0785252976172,518.0871235554487 512.3973757500329,527.9997737300571" stroke="black" fill="black"/><rect x="830.4126501746084" y="483.5116216505886" opacity="0.6" stroke-width="1" fill="white" width="2" height="0"/><text font-family="verdana" font-weight="bold" font-size="12"></text><rect id="65" x="1161" y="414" width="40" height="40" fill="#ffb3b3" class="transition" stroke="black" stroke-width="2"/><polyline points="1288.9823854139331,390.21373290695277 1316.4421406263668,422.3931335465236" fill="none" stroke-width="4" stroke="white"/><polyline points="1288.9823854139331,390.21373290695277 1316.4421406263668,422.3931335465236" fill="none" stroke-width="2" stroke="black"/><polygon points="1322.9333333333334,430 1312.6387073996286,425.63872990000687 1320.245573853105,419.1475371930403" stroke="black" fill="black"/><rect x="1304.9578593736333" y="413.1068664534764" opacity="0.6" stroke-width="1" fill="white" width="2" height="0"/><text font-family="verdana" font-weight="bold" font-size="12"></text><circle id="66" cx="1276" cy="375" r="20" fill="white" stroke="black" stroke-width="2" class="place"/><circle cx="1267" cy="384" r="4" fill="white"/><circle cx="1276" cy="384" r="4" fill="white"/><circle cx="1285" cy="384" r="4" fill="white"/><circle cx="1267" cy="375" r="4" fill="white"/><circle cx="1276" cy="375" r="4" fill="white"/><circle cx="1285" cy="375" r="4" fill="white"/><circle cx="1267" cy="366" r="4" fill="white"/><circle cx="1276" cy="366" r="4" fill="white"/><circle cx="1285" cy="366" r="4" fill="white"/><text x="1276" y="375" font-family="verdana" font-weight="bold" font-size="12" fill="black"></text><polyline points="1339.3548387096773,470 1334,636 120,636 125,340  217.0161117090031,343.01692169537716" fill="none" stroke-width="4" stroke="white"/><polyline points="1339.3548387096773,470 1334,636 120,636 125,340  217.0161117090031,343.01692169537716" fill="none" stroke-width="2" stroke="black"/><polygon points="227.0107411393354,343.3446144635848 216.85226532489932,348.01423641054333 217.17995809310693,338.019606980211" stroke="black" fill="black"/><rect x="121.5" y="487" opacity="0.6" stroke-width="1" fill="white" width="2" height="0"/><text font-family="verdana" font-weight="bold" font-size="12" x="122.5" y="484"></text><rect id="68" x="1320" y="430" width="40" height="40" fill="#ffb3b3" class="transition" stroke="black" stroke-width="2"/><rect x="177.5" y="115" stroke-width="1" fill-opacity="0.6" fill="white" width="151" height="12"/><text id="label_8" y="126" x="178.5" font-family="verdana" font-weight="bold" font-size="12">prechod je spustitelny</text><rect x="162" y="230" stroke-width="1" fill-opacity="0.6" fill="white" width="176" height="12"/><text id="label_9" y="241" x="163" font-family="verdana" font-weight="bold" font-size="12">prechod nie je spustitelny</text><rect x="185" y="454" stroke-width="1" fill-opacity="0.6" fill="white" width="122" height="12"/><text id="label_13" y="465" x="186" font-family="verdana" font-weight="bold" font-size="12">zamietnuť prístup</text><rect x="423" y="108" stroke-width="1" fill-opacity="0.6" fill="white" width="142" height="12"/><text id="label_22" y="119" x="424" font-family="verdana" font-weight="bold" font-size="12">užívateľ patrí do role</text><rect x="414.5" y="204" stroke-width="1" fill-opacity="0.6" fill="white" width="159" height="12"/><text id="label_23" y="215" x="415.5" font-family="verdana" font-weight="bold" font-size="12">užívateľ nepatrí do role</text><rect x="733.5" y="109" stroke-width="1" fill-opacity="0.6" fill="white" width="129" height="12"/><text id="label_33" y="120" x="734.5" font-family="verdana" font-weight="bold" font-size="12">existuje referencia</text><rect x="559" y="262" stroke-width="1" fill-opacity="0.6" fill="white" width="146" height="12"/><text id="label_34" y="273" x="560" font-family="verdana" font-weight="bold" font-size="12">neexistuje referencia</text><rect x="308.5" y="548" stroke-width="1" fill-opacity="0.6" fill="white" width="99" height="12"/><text id="label_38" y="559" x="309.5" font-family="verdana" font-weight="bold" font-size="12">povoliť prístup</text><rect x="731" y="307" stroke-width="1" fill-opacity="0.6" fill="white" width="150" height="12"/><text id="label_46" y="318" x="732" font-family="verdana" font-weight="bold" font-size="12">referencia na prechod</text><rect x="889" y="207" stroke-width="1" fill-opacity="0.6" fill="white" width="184" height="12"/><text id="label_47" y="218" x="890" font-family="verdana" font-weight="bold" font-size="12">referencia na prvého z role</text><rect x="570.5" y="466" stroke-width="1" fill-opacity="0.6" fill="white" width="227" height="12"/><text id="label_54" y="477" x="571.5" font-family="verdana" font-weight="bold" font-size="12">užívateľ je spustil túto referenciu</text><rect x="576" y="382" stroke-width="1" fill-opacity="0.6" fill="white" width="196" height="12"/><text id="label_55" y="393" x="577" font-family="verdana" font-weight="bold" font-size="12">užívateľ nespustil referenciu</text><rect x="979.5" y="311" stroke-width="1" fill-opacity="0.6" fill="white" width="195" height="12"/><text id="label_60" y="322" x="980.5" font-family="verdana" font-weight="bold" font-size="12">precho je prvý s danou rolou</text><rect x="1168.5" y="307" stroke-width="1" fill-opacity="0.6" fill="white" width="261" height="12"/><text id="label_61" y="318" x="1169.5" font-family="verdana" font-weight="bold" font-size="12">už bol spustený prechod s danou rolou</text><rect x="1099" y="455" stroke-width="1" fill-opacity="0.6" fill="white" width="164" height="12"/><text id="label_65" y="466" x="1100" font-family="verdana" font-weight="bold" font-size="12">spustil ho daný užívateľ</text><rect x="1271" y="471" stroke-width="1" fill-opacity="0.6" fill="white" width="138" height="12"/><text id="label_68" y="482" x="1272" font-family="verdana" font-weight="bold" font-size="12">spustil ho niekto iný</text><rect x="2" y="116" stroke-width="1" fill-opacity="0.6" fill="white" width="136" height="12"/><text y="127" x="3" font-family="verdana" font-weight="bold" font-size="12">overiť spustiteľnosť</text><rect x="246" y="365" stroke-width="1" fill-opacity="0.6" fill="white"/><text y="376" x="247" font-family="verdana" font-weight="bold" font-size="12"></text><rect x="222" y="556" stroke-width="1" fill-opacity="0.6" fill="white" width="46" height="12"/><text y="567" x="223" font-family="verdana" font-weight="bold" font-size="12">koniec</text><rect x="351" y="118" stroke-width="1" fill-opacity="0.6" fill="white"/><text y="129" x="352" font-family="verdana" font-weight="bold" font-size="12"></text><rect x="635" y="112" stroke-width="1" fill-opacity="0.6" fill="white"/><text y="123" x="636" font-family="verdana" font-weight="bold" font-size="12"></text><rect x="481" y="548" stroke-width="1" fill-opacity="0.6" fill="white"/><text y="559" x="482" font-family="verdana" font-weight="bold" font-size="12"></text><rect x="806" y="220" stroke-width="1" fill-opacity="0.6" fill="white"/><text y="220" x="806" font-family="verdana" font-weight="bold" font-size="12"></text><rect x="799" y="402" stroke-width="1" fill-opacity="0.6" fill="white"/><text y="402" x="799" font-family="verdana" font-weight="bold" font-size="12"></text><rect x="1106" y="213" stroke-width="1" fill-opacity="0.6" fill="white"/><text y="213" x="1106" font-family="verdana" font-weight="bold" font-size="12"></text><rect x="1276" y="407" stroke-width="1" fill-opacity="0.6" fill="white"/><text y="407" x="1276" font-family="verdana" font-weight="bold" font-size="12"></text></svg>